<?xml version="1.0" encoding="utf-8"?>
<!-- Generator: Adobe Illustrator 28.2.0, SVG Export Plug-In . SVG Version: 6.00 Build 0)  -->
<svg version="1.1" id="Layer_1" xmlns="http://www.w3.org/2000/svg" xmlns:xlink="http://www.w3.org/1999/xlink" x="0px" y="0px"
	 viewBox="0 0 250 60" style="enable-background:new 0 0 250 60;" xml:space="preserve">
<style type="text/css">
	.st0{fill:#A9C754;}
	.st1{fill:#221F1F;}
	.st2{fill:#FFFFFF;}
	.st3{fill:#231F20;}
	.st4{fill:#ABC854;}
</style>
<g>
	<path class="st0" d="M39.42,19.86c0.02-1.51,0.01-2.73,0-3.58c-0.01-0.76,0.03-1.42,0-2.73c-0.04-2-0.01-2.59,0.54-3.11
		c0.62-0.59,1.61-0.77,2.36-0.83c0.02,0,0.05,0,0.07,0c1.02-0.01,2.05-0.01,3.07-0.02c2.8-0.02,5.6-0.03,8.41-0.05
		c0.28,0,0.54,0.11,0.7,0.29c0.62,0.72,1.23,1.45,1.85,2.17c0.16,0.18,0.42,0.29,0.7,0.29c14.2-0.05,24.6-0.02,27.4,0.02
		c0.48,0.01,1.56-0.05,2.4,0.61c0.87,0.69,0.97,1.63,0.97,2.48c0,0.47,0,0.72,0,1.09c0,0,0.01,1.86,0,3.35L39.42,19.86z"/>
	<path class="st1" d="M88.34,20.33h-49.4l0.01-0.48c0.02-1.2,0.02-2.4,0-3.57c-0.01-0.33,0-0.63,0-0.98c0.01-0.47,0.01-0.99,0-1.74
		c-0.04-2.05-0.02-2.79,0.68-3.46c0.57-0.55,1.47-0.87,2.65-0.96c0.04,0,0.07,0,0.1,0l11.48-0.07c0,0,0.01,0,0.01,0
		c0.41,0,0.8,0.17,1.05,0.46l1.85,2.17c0.07,0.08,0.2,0.13,0.33,0.13c0,0,0,0,0,0c14.43-0.05,24.72-0.02,27.41,0.02
		c0.04,0,0.08,0,0.13,0c0.58,0,1.65,0.01,2.55,0.71c1.01,0.8,1.15,1.89,1.15,2.85v1.09c0,0.02,0.01,1.88,0,3.35L88.34,20.33z
		 M39.89,19.39h47.52c0-1.37,0-2.86,0-2.88v-1.09c0-0.89-0.13-1.59-0.79-2.11c-0.64-0.51-1.47-0.51-1.97-0.51c-0.05,0-0.1,0-0.14,0
		c-2.69-0.04-12.97-0.08-27.39-0.02c-0.42,0-0.81-0.17-1.06-0.46l-1.85-2.17c-0.07-0.08-0.2-0.13-0.34-0.13l-11.48,0.07
		c-0.01,0-0.03,0-0.04,0c-0.95,0.07-1.66,0.31-2.07,0.7c-0.38,0.36-0.43,0.72-0.39,2.76c0.01,0.76,0.01,1.3,0,1.77
		c-0.01,0.34-0.01,0.64,0,0.96C39.9,17.3,39.9,18.34,39.89,19.39z"/>
</g>
<g>
	<g>
		<path class="st2" d="M83.1,51.17H44.03c-2.59,0-4.69-2.1-4.69-4.69V22.17h48.45v24.31C87.79,49.07,85.69,51.17,83.1,51.17z"/>
	</g>
	<g>
		<path class="st1" d="M83.1,51.64H44.03c-2.84,0-5.16-2.31-5.16-5.16V21.7h49.39v24.78C88.26,49.32,85.95,51.64,83.1,51.64z
			 M39.81,22.64v23.84c0,2.33,1.89,4.22,4.22,4.22H83.1c2.33,0,4.22-1.89,4.22-4.22V22.64H39.81z"/>
	</g>
</g>
<g>
	<g>
		<path class="st1" d="M71.81,37.1c-0.07,0-0.13-0.02-0.19-0.05c-0.2-0.11-0.28-0.36-0.17-0.56c0.19-0.36,0.42-0.94,0.43-1.67
			c0.01-0.75-0.21-1.35-0.4-1.72c-0.1-0.2-0.02-0.45,0.18-0.55c0.2-0.1,0.45-0.02,0.55,0.18c0.23,0.45,0.51,1.19,0.49,2.11
			c-0.01,0.71-0.19,1.42-0.53,2.04C72.1,37.02,71.96,37.1,71.81,37.1z"/>
	</g>
	<g>
		<path class="st1" d="M73.3,38.83c-0.09,0-0.18-0.03-0.25-0.09c-0.18-0.14-0.21-0.4-0.07-0.58c0.43-0.55,1.15-1.72,1.13-3.33
			c-0.02-1.53-0.69-2.64-1.09-3.17c-0.14-0.18-0.1-0.44,0.08-0.58c0.18-0.14,0.44-0.1,0.58,0.08c0.46,0.61,1.24,1.89,1.26,3.65
			c0.02,1.87-0.81,3.21-1.3,3.85C73.54,38.77,73.42,38.83,73.3,38.83z"/>
	</g>
	<g>
		<path class="st1" d="M60.83,42.95c0.9-0.01,1.81-0.01,2.73-0.01c0.96,0,1.91,0,2.86,0.01c-0.11,1.48-1.37,2.63-2.84,2.61
			C62.14,45.53,60.94,44.4,60.83,42.95z"/>
	</g>
	<g>
		<path class="st1" d="M63.73,42.58c-1.22-0.01-2.46-0.02-3.71-0.01c-1.34,0-2.67,0.02-3.98,0.04c-0.42-0.36-0.94-0.94-1-1.69
			c-0.13-1.56,1.86-1.98,2.75-4.05c1.03-2.39-0.85-3.59,0.3-6.26c0.79-1.84,2.32-2.77,2.6-2.93c1.24-0.72,2.43-0.84,3.05-0.86h0.02
			c0.62,0.02,1.81,0.13,3.05,0.86c0.28,0.16,1.81,1.09,2.6,2.93c1.15,2.68-0.73,3.88,0.3,6.26c0.89,2.07,2.88,2.49,2.75,4.05
			c-0.06,0.75-0.58,1.33-1,1.69c-1.31-0.02-2.64-0.03-3.98-0.04c-1.25,0-2.48,0-3.71,0.01H63.73z"/>
	</g>
</g>
<path class="st3" d="M90.43,47.23v-15.8h3.02l6.73,11.15h-1.6l6.59-11.15h3.05v15.8h-3.41l-0.04-10.54h0.68l-5.33,8.85h-1.63
	l-5.4-8.85h0.75v10.54H90.43z"/>
<path class="st3" d="M117.5,47.41c-1.28,0-2.42-0.27-3.42-0.81c-1-0.54-1.79-1.28-2.36-2.22c-0.57-0.94-0.86-2.01-0.86-3.22
	c0-1.22,0.29-2.3,0.86-3.24s1.36-1.68,2.36-2.21c1-0.53,2.14-0.8,3.42-0.8c1.29,0,2.45,0.27,3.45,0.8c1.01,0.53,1.8,1.27,2.37,2.21
	c0.57,0.94,0.86,2.02,0.86,3.24s-0.29,2.3-0.86,3.23c-0.57,0.93-1.36,1.67-2.37,2.21C119.94,47.14,118.79,47.41,117.5,47.41z
	 M117.5,44.52c0.6,0,1.13-0.13,1.59-0.4c0.46-0.26,0.83-0.65,1.11-1.16c0.28-0.51,0.42-1.11,0.42-1.81c0-0.71-0.14-1.31-0.42-1.81
	c-0.28-0.5-0.65-0.88-1.11-1.14c-0.46-0.26-0.98-0.4-1.57-0.4c-0.59,0-1.11,0.13-1.58,0.4c-0.47,0.26-0.84,0.64-1.12,1.14
	c-0.28,0.5-0.42,1.1-0.42,1.81c0,0.69,0.14,1.29,0.42,1.81c0.28,0.51,0.65,0.9,1.12,1.16C116.4,44.39,116.92,44.52,117.5,44.52z"/>
<path class="st3" d="M125.49,51.79c-0.56,0-1.08-0.06-1.58-0.17c-0.5-0.11-0.92-0.28-1.26-0.51l0.95-2.55
	c0.41,0.29,0.9,0.43,1.49,0.43c0.45,0,0.8-0.14,1.05-0.43c0.25-0.29,0.37-0.74,0.37-1.35V35.08h3.52v12.1c0,1.41-0.4,2.54-1.19,3.36
	S126.93,51.79,125.49,51.79z M128.27,33.39c-0.66,0-1.2-0.19-1.6-0.56c-0.41-0.38-0.61-0.84-0.61-1.4c0-0.56,0.2-1.02,0.61-1.4
	c0.41-0.38,0.94-0.56,1.6-0.56c0.65,0,1.18,0.18,1.59,0.53c0.41,0.35,0.62,0.81,0.62,1.37c0,0.59-0.2,1.07-0.61,1.46
	C129.46,33.2,128.93,33.39,128.27,33.39z"/>
<path class="st4" d="M133.55,47.23v-15.8h3.63v15.8H133.55z M136.8,43.62l-0.18-4.22l7.56-7.97h4.06l-6.8,7.34l-2.08,2.17
	L136.8,43.62z M144.36,47.23l-5.62-6.86l2.39-2.62l7.52,9.48H144.36z"/>
<path class="st4" d="M150.01,47.23V30.48h3.52v16.75H150.01z"/>
<path class="st4" d="M158.56,33.39c-0.66,0-1.2-0.19-1.6-0.56c-0.41-0.38-0.61-0.84-0.61-1.4c0-0.56,0.2-1.02,0.61-1.4
	c0.41-0.38,0.94-0.56,1.6-0.56c0.65,0,1.18,0.18,1.59,0.53c0.41,0.35,0.62,0.81,0.62,1.37c0,0.59-0.2,1.07-0.61,1.46
	C159.76,33.2,159.22,33.39,158.56,33.39z M156.8,47.23V35.08h3.52v12.15H156.8z"/>
<path class="st4" d="M162.72,51.79c-0.56,0-1.08-0.06-1.58-0.17c-0.5-0.11-0.92-0.28-1.26-0.51l0.95-2.55
	c0.41,0.29,0.9,0.43,1.49,0.43c0.45,0,0.8-0.14,1.05-0.43c0.25-0.29,0.37-0.74,0.37-1.35V35.08h3.52v12.1c0,1.41-0.4,2.54-1.19,3.36
	C165.28,51.37,164.16,51.79,162.72,51.79z M165.49,33.39c-0.66,0-1.2-0.19-1.6-0.56c-0.41-0.38-0.61-0.84-0.61-1.4
	c0-0.56,0.2-1.02,0.61-1.4c0.41-0.38,0.94-0.56,1.6-0.56c0.65,0,1.18,0.18,1.59,0.53c0.41,0.35,0.62,0.81,0.62,1.37
	c0,0.59-0.2,1.07-0.61,1.46C166.69,33.2,166.16,33.39,165.49,33.39z"/>
<path class="st4" d="M176.56,47.41c-1.38,0-2.6-0.27-3.63-0.81c-1.04-0.54-1.84-1.28-2.42-2.22c-0.57-0.94-0.86-2.01-0.86-3.22
	c0-1.2,0.27-2.28,0.82-3.23c0.55-0.95,1.32-1.69,2.3-2.22c0.99-0.53,2.1-0.8,3.33-0.8c1.19,0,2.26,0.26,3.22,0.77
	c0.96,0.51,1.71,1.23,2.27,2.17c0.56,0.93,0.84,2.05,0.84,3.36c0,0.14-0.01,0.29-0.02,0.46c-0.02,0.17-0.03,0.34-0.05,0.49h-9.87
	v-2.05h8.01l-1.38,0.61c0.01-0.63-0.11-1.18-0.36-1.65c-0.26-0.47-0.61-0.83-1.06-1.09c-0.45-0.26-0.98-0.4-1.58-0.4
	c-0.6,0-1.13,0.13-1.59,0.4c-0.46,0.26-0.82,0.63-1.07,1.11c-0.26,0.47-0.38,1.03-0.38,1.68v0.54c0,0.68,0.15,1.26,0.45,1.76
	c0.3,0.5,0.71,0.88,1.24,1.14c0.53,0.26,1.16,0.4,1.9,0.4c0.63,0,1.19-0.1,1.68-0.29c0.49-0.2,0.94-0.49,1.34-0.88l1.87,2.03
	c-0.56,0.63-1.26,1.12-2.1,1.46C178.62,47.24,177.65,47.41,176.56,47.41z"/>
<path class="st4" d="M184.77,47.23V35.08h3.36v3.36l-0.63-1.02c0.44-0.81,1.06-1.44,1.87-1.87c0.81-0.44,1.74-0.65,2.78-0.65
	c0.96,0,1.82,0.19,2.58,0.58c0.76,0.38,1.36,0.97,1.8,1.76c0.44,0.79,0.65,1.8,0.65,3.04v6.95h-3.52v-6.41
	c0-0.98-0.21-1.7-0.64-2.17c-0.43-0.47-1.03-0.7-1.82-0.7c-0.56,0-1.06,0.12-1.5,0.36c-0.44,0.24-0.79,0.59-1.04,1.06
	c-0.25,0.47-0.37,1.08-0.37,1.85v6.01H184.77z"/>
<path class="st4" d="M198.93,37.79v-2.71h8.42v2.71H198.93z M205.34,47.41c-1.43,0-2.54-0.36-3.34-1.09c-0.8-0.73-1.2-1.82-1.2-3.26
	V32.4h3.54v10.59c0,0.51,0.13,0.91,0.4,1.2c0.26,0.29,0.62,0.43,1.07,0.43c0.57,0,1.05-0.15,1.44-0.45l0.93,2.48
	c-0.35,0.26-0.77,0.45-1.28,0.58C206.4,47.34,205.88,47.41,205.34,47.41z"/>
</svg>
